<svg width="17" height="14" viewBox="0 0 17 14" fill="none" xmlns="http://www.w3.org/2000/svg">
<path d="M16.5594 6.34616L10.4821 0.268705C10.3086 0.0952232 10.0774 0 9.83085 0C9.58403 0 9.35295 0.09536 9.17947 0.268705L8.6277 0.820616C8.45435 0.993824 8.35885 1.22518 8.35885 1.47186C8.35885 1.7184 8.45435 1.95755 8.6277 2.13076L12.1731 5.68398H0.909136C0.401279 5.68398 0 6.08156 0 6.58956V7.36981C0 7.8778 0.401279 8.31548 0.909136 8.31548H12.2133L8.62783 11.8885C8.45449 12.062 8.35899 12.2871 8.35899 12.5338C8.35899 12.7802 8.45449 13.0085 8.62783 13.1818L9.17961 13.732C9.35309 13.9055 9.58417 14 9.83098 14C10.0775 14 10.3087 13.9042 10.4822 13.7307L16.5595 7.65343C16.7334 7.4794 16.8291 7.24709 16.8284 7.00014C16.8289 6.75237 16.7334 6.51992 16.5594 6.34616Z" fill="white"/>
</svg>
