<svg width="16" height="15" viewBox="0 0 16 15" fill="none" xmlns="http://www.w3.org/2000/svg">
<path d="M15.3125 0.84375C15.3229 0.791667 15.3281 0.739583 15.3281 0.6875C15.3385 0.635417 15.3333 0.583333 15.3125 0.53125C15.3125 0.489583 15.3021 0.453125 15.2812 0.421875C15.2708 0.380208 15.2552 0.34375 15.2344 0.3125C15.2135 0.28125 15.1875 0.25 15.1562 0.21875C15.1354 0.1875 15.1094 0.161458 15.0781 0.140625C15.0365 0.109375 14.9948 0.0833333 14.9531 0.0625C14.9115 0.0416667 14.8646 0.0260417 14.8125 0.015625C14.7708 0.00520833 14.724 0 14.6719 0C14.6302 0 14.5833 0.00520833 14.5312 0.015625C14.5208 0.015625 14.5052 0.0208333 14.4844 0.03125C14.474 0.03125 14.4635 0.03125 14.4531 0.03125L14.4375 0.046875L1.10938 4.70312C1.02604 4.73438 0.947917 4.78125 0.875 4.84375C0.8125 4.90625 0.760417 4.97917 0.71875 5.0625C0.645833 5.22917 0.640625 5.40104 0.703125 5.57812C0.776042 5.74479 0.895833 5.86458 1.0625 5.9375L6.82812 8.5L9.39062 14.2656C9.43229 14.349 9.48438 14.4219 9.54688 14.4844C9.60938 14.5469 9.6875 14.5938 9.78125 14.625C9.95833 14.6875 10.125 14.6771 10.2812 14.5938C10.4479 14.5208 10.5625 14.3958 10.625 14.2188L15.2969 0.90625C15.2969 0.895833 15.2969 0.885417 15.2969 0.875C15.3073 0.864583 15.3125 0.854167 15.3125 0.84375ZM7.1875 7.20312L3.14062 5.40625L12.125 2.26562L7.1875 7.20312ZM13.0781 3.20312L9.92188 12.1875L8.125 8.14062L13.0781 3.20312Z" fill="#24A11E"/>
</svg>
