<svg width="17" height="12" viewBox="0 0 17 12" fill="none" xmlns="http://www.w3.org/2000/svg">
<path d="M0.203125 11.008V1.792L0.251125 1.488L5.67513 6.128L0.267125 11.328C0.224458 11.1787 0.203125 11.072 0.203125 11.008ZM0.923125 0.848C0.997792 0.815999 1.08846 0.799999 1.19513 0.799999H15.8031C15.8991 0.799999 15.9951 0.815999 16.0911 0.848L10.6511 5.504L9.93113 6.08L8.50713 7.248L7.08313 6.08L6.36313 5.504L0.923125 0.848ZM0.939125 11.952L6.39513 6.72L8.50713 8.432L10.6191 6.72L16.0751 11.952C15.9898 11.984 15.8991 12 15.8031 12H1.19513C1.10979 12 1.02446 11.984 0.939125 11.952ZM11.3391 6.128L16.7471 1.488C16.7791 1.584 16.7951 1.68533 16.7951 1.792V11.008C16.7951 11.104 16.7791 11.2107 16.7471 11.328L11.3391 6.128Z" fill="#7D8D9A"/>
</svg>
