<svg width="22" height="19" viewBox="0 0 22 19" fill="none" xmlns="http://www.w3.org/2000/svg">
<path d="M18.864 10.896V17.304C18.864 17.544 18.776 17.744 18.6 17.904C18.424 18.064 18.224 18.152 18 18.168H12.864V13.032H9.432V18.168H4.296C4.056 18.168 3.856 18.08 3.696 17.904C3.536 17.728 3.448 17.528 3.432 17.304V10.8L11.136 4.464L18.84 10.8C18.856 10.816 18.864 10.848 18.864 10.896ZM21.84 9.96L21.024 10.944C20.944 11.024 20.848 11.072 20.736 11.088H20.688C20.576 11.088 20.48 11.064 20.4 11.016L11.136 3.288L1.872 11.016C1.76 11.08 1.648 11.104 1.536 11.088C1.44 11.072 1.352 11.024 1.272 10.944L0.432 9.96C0.368 9.864 0.344 9.76 0.36 9.648C0.376 9.536 0.424 9.44 0.504 9.36L10.128 1.344C10.416 1.104 10.752 0.983999 11.136 0.983999C11.52 0.983999 11.864 1.104 12.168 1.344L15.432 4.056V1.464C15.432 1.336 15.472 1.232 15.552 1.152C15.632 1.072 15.736 1.032 15.864 1.032H18.432C18.56 1.032 18.664 1.072 18.744 1.152C18.824 1.232 18.864 1.336 18.864 1.464V6.912L21.792 9.36C21.888 9.424 21.936 9.52 21.936 9.648C21.936 9.776 21.904 9.88 21.84 9.96Z" fill="white"/>
</svg>
