<svg width="13" height="17" viewBox="0 0 13 17" fill="none" xmlns="http://www.w3.org/2000/svg">
<path d="M0.46875 6.432C0.46875 4.768 1.05542 3.344 2.22875 2.16C3.40208 0.976 4.82608 0.389333 6.50075 0.4C8.17542 0.410666 9.59942 0.997333 10.7728 2.16C11.9461 3.32267 12.5328 4.74667 12.5328 6.432C12.5328 7.744 12.2501 8.77333 11.6848 9.52L6.50075 16.4L1.31675 9.52C0.751417 8.77333 0.46875 7.744 0.46875 6.432ZM3.97275 6.432C3.97275 7.136 4.21808 7.73333 4.70875 8.224C5.19942 8.71467 5.79675 8.96 6.50075 8.96C7.20475 8.96 7.80208 8.71467 8.29275 8.224C8.78342 7.73333 9.02875 7.136 9.02875 6.432C9.02875 5.728 8.78342 5.13067 8.29275 4.64C7.80208 4.14933 7.20475 3.904 6.50075 3.904C5.79675 3.904 5.19942 4.14933 4.70875 4.64C4.21808 5.13067 3.97275 5.728 3.97275 6.432Z" fill="#7D8D9A"/>
</svg>
