<svg width="24" height="24" viewBox="0 0 24 24" fill="none" xmlns="http://www.w3.org/2000/svg">
<path d="M14.2222 7.11111C14.8774 7.23895 15.5279 7.52793 16 8C16.472 8.47207 16.761 9.12253 16.8888 9.77778M14.6666 4C16.028 4.15124 17.253 4.80984 18.2222 5.77778C19.1913 6.74572 19.847 7.97217 20 9.33333M19.9995 15.9793V18.3879C20.0032 19.3087 19.1753 20.0776 18.2457 19.9937C10.2222 20 4 13.72 4.00628 5.75039C3.92256 4.82573 4.68762 4.00094 5.60721 4.00008H8.02067C8.41109 3.99624 8.78959 4.13422 9.08561 4.3883C9.92723 5.11066 10.4686 7.56246 10.2603 8.53714C10.0977 9.2981 9.33058 9.83048 8.80906 10.351C9.95429 12.3611 11.6219 14.0254 13.636 15.1683C14.1575 14.6478 14.6909 13.8823 15.4534 13.72C16.4315 13.5118 18.8991 14.0539 19.6186 14.9014C19.8737 15.2019 20.0093 15.5855 19.9995 15.9793Z" stroke="#24A11E" stroke-width="1.5" stroke-linecap="round" stroke-linejoin="round"/>
</svg>
